<svg width="20" height="20" viewBox="0 0 20 20" fill="none" xmlns="http://www.w3.org/2000/svg">
<path d="M11.6663 5.83366C11.6663 6.75413 10.9202 7.50033 9.99967 7.50033C9.07917 7.50033 8.33301 6.75413 8.33301 5.83366C8.33301 4.91318 9.07917 4.16699 9.99967 4.16699C10.9202 4.16699 11.6663 4.91318 11.6663 5.83366Z" stroke="#1C274C" stroke-width="1.25"/>
<path d="M15 8.33301C15 8.33301 12.0522 9.58301 10 9.58301C7.94772 9.58301 5 8.33301 5 8.33301" stroke="#1C274C" stroke-width="1.25" stroke-linecap="round"/>
<path d="M10 10V11.2102M10 11.2102C10 11.6896 10.1378 12.1588 10.3971 12.5621L12.5 15.8333M10 11.2102C10 11.6896 9.86217 12.1588 9.60292 12.5621L7.5 15.8333" stroke="#1C274C" stroke-width="1.25" stroke-linecap="round"/>
<path d="M5.83366 2.78184C7.05938 2.0728 8.48249 1.66699 10.0003 1.66699C14.6027 1.66699 18.3337 5.39795 18.3337 10.0003C18.3337 14.6027 14.6027 18.3337 10.0003 18.3337C5.39795 18.3337 1.66699 14.6027 1.66699 10.0003C1.66699 8.48249 2.0728 7.05938 2.78184 5.83366" stroke="#1C274C" stroke-width="1.25" stroke-linecap="round"/>
</svg>
