<svg width="21" height="21" viewBox="0 0 21 21" fill="none" xmlns="http://www.w3.org/2000/svg">
<path d="M18.8337 14.0555V3.99721C18.8337 2.99721 18.017 2.25554 17.0253 2.33888H16.9753C15.2253 2.48888 12.567 3.38054 11.0837 4.31388L10.942 4.40554C10.7003 4.55554 10.3003 4.55554 10.0587 4.40554L9.85033 4.28055C8.36699 3.35554 5.71699 2.47221 3.96699 2.33054C2.97533 2.24721 2.16699 2.99721 2.16699 3.98888V14.0555C2.16699 14.8555 2.81699 15.6055 3.61699 15.7055L3.85866 15.7388C5.66699 15.9805 8.45866 16.8972 10.0587 17.7722L10.092 17.7888C10.317 17.9138 10.6753 17.9138 10.892 17.7888C12.492 16.9055 15.292 15.9805 17.1087 15.7388L17.3837 15.7055C18.1837 15.6055 18.8337 14.8555 18.8337 14.0555Z" stroke="#040F73" stroke-width="1.25" stroke-linecap="round" stroke-linejoin="round"/>
<path d="M10.5 4.68066V17.1807" stroke="#040F73" stroke-width="1.25" stroke-linecap="round" stroke-linejoin="round"/>
<path d="M6.95801 7.18066H5.08301" stroke="#040F73" stroke-width="1.25" stroke-linecap="round" stroke-linejoin="round"/>
<path d="M7.58301 9.68066H5.08301" stroke="#040F73" stroke-width="1.25" stroke-linecap="round" stroke-linejoin="round"/>
</svg>
