<svg width="18" height="16" viewBox="0 0 18 16" fill="none" xmlns="http://www.w3.org/2000/svg">
<path d="M16.5 0.125H1.5C1.16848 0.125 0.850537 0.256696 0.616116 0.491116C0.381696 0.725537 0.25 1.04348 0.25 1.375V12C0.25 12.3315 0.381696 12.6495 0.616116 12.8839C0.850537 13.1183 1.16848 13.25 1.5 13.25H10.25V15.125C10.2503 15.2381 10.2813 15.3489 10.3396 15.4458C10.3979 15.5426 10.4815 15.6219 10.5813 15.675C10.679 15.7252 10.7882 15.7487 10.8979 15.7432C11.0077 15.7377 11.114 15.7034 11.2063 15.6438L12.75 14.625L14.2812 15.6438C14.3752 15.7057 14.4842 15.741 14.5967 15.7461C14.7091 15.7512 14.8208 15.7259 14.92 15.6728C15.0193 15.6196 15.1023 15.5407 15.1604 15.4443C15.2185 15.3479 15.2494 15.2376 15.25 15.125V13.25H16.5C16.8315 13.25 17.1495 13.1183 17.3839 12.8839C17.6183 12.6495 17.75 12.3315 17.75 12V1.375C17.75 1.04348 17.6183 0.725537 17.3839 0.491116C17.1495 0.256696 16.8315 0.125 16.5 0.125ZM13.1187 10.7125C12.7241 10.7918 12.3143 10.742 11.9502 10.5705C11.586 10.3989 11.2867 10.1146 11.0965 9.75979C10.9064 9.40494 10.8356 8.99832 10.8944 8.60008C10.9533 8.20183 11.1388 7.8331 11.4234 7.54844C11.7081 7.26378 12.0768 7.07829 12.4751 7.01942C12.8733 6.96055 13.2799 7.03142 13.6348 7.22155C13.9896 7.41168 14.2739 7.71097 14.4455 8.07515C14.617 8.43933 14.6668 8.84907 14.5875 9.24375C14.5147 9.60606 14.3364 9.93877 14.0751 10.2001C13.8138 10.4614 13.4811 10.6397 13.1187 10.7125ZM14 13.9562L13.0938 13.3312C12.9917 13.264 12.8722 13.2282 12.75 13.2282C12.6278 13.2282 12.5083 13.264 12.4062 13.3312L11.5 13.9562V11.7375C11.8943 11.9096 12.3198 11.9984 12.75 11.9984C13.1802 11.9984 13.6057 11.9096 14 11.7375V13.9562ZM16.5 12H15.25V10.75C15.5244 10.3896 15.716 9.97306 15.811 9.53014C15.9061 9.08722 15.9023 8.62879 15.8 8.1875C15.6323 7.43585 15.1929 6.77259 14.5662 6.32499C13.9395 5.87739 13.1696 5.67697 12.4042 5.76219C11.6388 5.84741 10.9318 6.21226 10.4189 6.78674C9.90599 7.36122 9.62327 8.10487 9.625 8.875C9.62179 9.55167 9.84143 10.2106 10.25 10.75V12H1.5V1.375H16.5V12Z" fill="#4D4D4D"/>
</svg>
