
<svg version="1.0" xmlns="http://www.w3.org/2000/svg"
 width="512.000000pt" height="512.000000pt" viewBox="0 0 512.000000 512.000000"
 preserveAspectRatio="xMidYMid meet">

<g transform="translate(0.000000,512.000000) scale(0.100000,-0.100000)"
fill="#040F73" stroke="none">
<path d="M2355 5110 c-1129 -101 -2046 -900 -2290 -1995 -45 -204 -58 -322
-58 -555 0 -233 13 -351 58 -555 216 -970 970 -1724 1940 -1940 204 -45 322
-58 555 -58 281 0 500 32 760 110 287 86 609 258 855 458 122 99 334 318 426
440 456 608 619 1360 454 2100 -198 886 -849 1601 -1711 1878 -135 43 -315 84
-454 103 -137 18 -409 25 -535 14z m1510 -1285 c35 -17 94 -69 201 -177 168
-170 194 -213 194 -323 0 -127 55 -65 -977 -1098 -857 -857 -943 -939 -991
-957 -98 -37 -230 -18 -299 42 -16 14 -267 265 -559 559 -499 502 -533 538
-553 592 -27 74 -27 150 0 224 19 51 42 78 178 214 86 86 171 164 189 173 92
47 216 40 305 -16 26 -17 178 -164 337 -327 l290 -296 682 681 c376 375 700
691 720 703 77 46 194 48 283 6z"/>
</g>
</svg>
