<svg width="21" height="21" viewBox="0 0 21 21" fill="none" xmlns="http://www.w3.org/2000/svg">
<path d="M11.333 10.1058C11.333 9.64554 11.7061 9.27246 12.1663 9.27246H16.333C16.7933 9.27246 17.1663 9.64554 17.1663 10.1058V15.9391C17.1663 16.3994 16.7933 16.7725 16.333 16.7725H12.1663C11.7061 16.7725 11.333 16.3994 11.333 15.9391V10.1058Z" stroke="black" stroke-width="1.66667" stroke-linecap="round"/>
<path d="M3.83301 4.27181C3.83301 3.81158 4.20611 3.43848 4.66634 3.43848H7.99967C8.45991 3.43848 8.83301 3.81158 8.83301 4.27181V10.1051C8.83301 10.5654 8.45991 10.9385 7.99967 10.9385H4.66634C4.20611 10.9385 3.83301 10.5654 3.83301 10.1051V4.27181Z" stroke="black" stroke-width="1.66667" stroke-linecap="round"/>
<path d="M3.83301 14.2718C3.83301 13.8116 4.20611 13.4385 4.66634 13.4385H7.99967C8.45991 13.4385 8.83301 13.8116 8.83301 14.2718V15.9385C8.83301 16.3987 8.45991 16.7718 7.99967 16.7718H4.66634C4.20611 16.7718 3.83301 16.3987 3.83301 15.9385V14.2718Z" stroke="black" stroke-width="1.66667" stroke-linecap="round"/>
<path d="M11.333 4.27181C11.333 3.81158 11.7061 3.43848 12.1663 3.43848H16.333C16.7933 3.43848 17.1663 3.81158 17.1663 4.27181V5.93848C17.1663 6.39871 16.7933 6.77181 16.333 6.77181H12.1663C11.7061 6.77181 11.333 6.39871 11.333 5.93848V4.27181Z" stroke="black" stroke-width="1.66667" stroke-linecap="round"/>
</svg>
