<svg width="20" height="20" viewBox="0 0 20 20" fill="none" xmlns="http://www.w3.org/2000/svg">
<path d="M17.1503 16.1421L14.6586 9.17539C14.4836 8.71706 14.0919 8.43372 13.6419 8.43372C13.1919 8.43372 12.8086 8.71706 12.6169 9.19206L10.1336 16.1421C10.0169 16.4671 10.1836 16.8254 10.5086 16.9421C10.8336 17.0587 11.1919 16.8921 11.3086 16.5671L11.8253 15.1254H15.4503L15.9669 16.5671C16.0586 16.8254 16.3003 16.9837 16.5586 16.9837C16.6253 16.9837 16.7003 16.9754 16.7669 16.9504C17.0919 16.8337 17.2586 16.4754 17.1419 16.1504L17.1503 16.1421ZM12.2836 13.8671L13.6503 10.0421L15.0169 13.8671H12.2836ZM10.1586 6.54206C8.27525 9.51706 6.57526 11.3171 4.50859 12.5171C4.40859 12.5754 4.30026 12.6004 4.20026 12.6004C3.98359 12.6004 3.77526 12.4921 3.65859 12.2921C3.48359 11.9921 3.58359 11.6087 3.88359 11.4421C5.63359 10.4254 7.06693 8.96706 8.67526 6.55039H3.43359C3.09193 6.55039 2.80859 6.26706 2.80859 5.92539C2.80859 5.58372 3.09193 5.30039 3.43359 5.30039H6.55859V3.65039C6.55859 3.30872 6.84193 3.02539 7.18359 3.02539C7.52525 3.02539 7.80859 3.30872 7.80859 3.65039V5.30039H10.9336C11.2753 5.30039 11.5586 5.58372 11.5586 5.92539C11.5586 6.26706 11.2753 6.55039 10.9336 6.55039H10.1503L10.1586 6.54206ZM10.1919 12.6004C10.0836 12.6004 9.97526 12.5754 9.87526 12.5171C9.33359 12.2004 8.80859 11.8504 8.31692 11.4837C8.04192 11.2754 7.98359 10.8837 8.19193 10.6087C8.40026 10.3337 8.79193 10.2754 9.06693 10.4837C9.51693 10.8254 10.0086 11.1421 10.5086 11.4337C10.8086 11.6087 10.9086 11.9921 10.7336 12.2921C10.6169 12.4921 10.4086 12.6004 10.1919 12.6004Z" fill="black"/>
</svg>
