<svg width="20" height="20" viewBox="0 0 20 20" fill="none" xmlns="http://www.w3.org/2000/svg">
<path d="M15.833 6.66699C17.2137 6.66699 18.333 5.5477 18.333 4.16699C18.333 2.78628 17.2137 1.66699 15.833 1.66699C14.4523 1.66699 13.333 2.78628 13.333 4.16699C13.333 5.5477 14.4523 6.66699 15.833 6.66699Z" stroke="#1C274C" stroke-width="1.25"/>
<path d="M5.83301 11.667H13.333" stroke="#1C274C" stroke-width="1.25" stroke-linecap="round"/>
<path d="M5.83301 14.583H10.833" stroke="#1C274C" stroke-width="1.25" stroke-linecap="round"/>
<path d="M1.66699 10.0003C1.66699 13.9287 1.66699 15.8929 2.88738 17.1132C4.10777 18.3337 6.07195 18.3337 10.0003 18.3337C13.9287 18.3337 15.8929 18.3337 17.1132 17.1132C18.3337 15.8929 18.3337 13.9287 18.3337 10.0003V8.75033M11.2503 1.66699H10.0003C6.07195 1.66699 4.10777 1.66699 2.88738 2.88738C2.07593 3.69883 1.80403 4.83912 1.71291 6.66699" stroke="#1C274C" stroke-width="1.25" stroke-linecap="round"/>
</svg>
