<svg width="21" height="21" viewBox="0 0 21 21" fill="none" xmlns="http://www.w3.org/2000/svg">
<g clip-path="url(#clip0_302_8695)">
<path fill-rule="evenodd" clip-rule="evenodd" d="M10.5 10.1055C8.294 10.1055 6.5 8.31147 6.5 6.10547C6.5 3.89947 8.294 2.10547 10.5 2.10547C12.706 2.10547 14.5 3.89947 14.5 6.10547C14.5 8.31147 12.706 10.1055 10.5 10.1055ZM14.258 10.7784C15.624 9.67944 16.5 7.99547 16.5 6.10547C16.5 2.79147 13.814 0.105469 10.5 0.105469C7.186 0.105469 4.5 2.79147 4.5 6.10547C4.5 7.99547 5.376 9.67944 6.742 10.7784C3.083 12.1534 0.5 15.5505 0.5 20.1055H2.5C2.5 15.1055 6.089 12.1055 10.5 12.1055C14.911 12.1055 18.5 15.1055 18.5 20.1055H20.5C20.5 15.5505 17.917 12.1534 14.258 10.7784Z" fill="black"/>
</g>
<defs>
<clipPath id="clip0_302_8695">
<rect width="20" height="20" fill="white" transform="translate(0.5 0.105469)"/>
</clipPath>
</defs>
</svg>
