<svg width="20" height="20" viewBox="0 0 20 20" fill="none" xmlns="http://www.w3.org/2000/svg">
<path d="M17.4252 9.26658C17.4252 13.3416 14.4669 17.1583 10.4252 18.2749C10.1502 18.3499 9.85016 18.3499 9.57516 18.2749C5.53353 17.1583 2.5752 13.3416 2.5752 9.26658V5.60824C2.5752 4.92491 3.09188 4.14991 3.73355 3.89158L8.37516 1.9916C9.41683 1.5666 10.5918 1.5666 11.6335 1.9916L16.2752 3.89158C16.9085 4.14991 17.4336 4.92491 17.4336 5.60824L17.4252 9.26658Z" stroke="#292D32" stroke-width="1.25" stroke-linecap="round" stroke-linejoin="round"/>
<g opacity="0.4">
<path d="M10.0007 10.4163C10.9212 10.4163 11.6673 9.67017 11.6673 8.74967C11.6673 7.8292 10.9212 7.08301 10.0007 7.08301C9.08015 7.08301 8.33398 7.8292 8.33398 8.74967C8.33398 9.67017 9.08015 10.4163 10.0007 10.4163Z" stroke="#292D32" stroke-width="1.25" stroke-miterlimit="10" stroke-linecap="round" stroke-linejoin="round"/>
<path d="M10.001 10.416V12.916" stroke="#292D32" stroke-width="1.25" stroke-miterlimit="10" stroke-linecap="round" stroke-linejoin="round"/>
</g>
</svg>
