<svg width="21" height="21" viewBox="0 0 21 21" fill="none" xmlns="http://www.w3.org/2000/svg">
<g clip-path="url(#clip0_302_8677)">
<path d="M6.9517 17.8665C6.9517 18.3734 6.53696 18.7881 6.03004 18.7881H2.22049C1.71358 18.7881 1.29883 18.3734 1.29883 17.8665V13.6883C1.29883 13.1814 1.71358 12.7666 2.22049 12.7666H6.03004C6.53696 12.7666 6.9517 13.1814 6.9517 13.6883V17.8665Z" fill="black"/>
<path d="M13.7261 17.8656C13.7261 18.3725 13.3114 18.7872 12.8045 18.7872H8.99491C8.48799 18.7872 8.07324 18.3725 8.07324 17.8656V11.4754C8.07324 10.9685 8.48799 10.5537 8.99491 10.5537H12.8045C13.3114 10.5537 13.7261 10.9685 13.7261 11.4754V17.8656Z" fill="black"/>
<path d="M20.4996 17.8663C20.4996 18.3732 20.0848 18.788 19.5779 18.788H15.7683C15.2614 18.788 14.8467 18.3732 14.8467 17.8663V9.01834C14.8467 8.51143 15.2614 8.09668 15.7683 8.09668H19.5779C20.0848 8.09668 20.4996 8.51143 20.4996 9.01834V17.8663Z" fill="black"/>
<path d="M19.7027 1.44102L15.5629 2.44822C15.2344 2.52773 15.1613 2.78831 15.4002 3.02727L16.2836 3.89001C16.3578 3.97455 16.2698 4.087 16.2 4.13462C15.6437 4.51434 14.7609 5.07152 13.5407 5.70814C6.89767 9.17403 1.42157 8.96144 1.33924 8.95769C0.899664 8.93538 0.523809 9.274 0.501075 9.71431C0.478402 10.1549 0.817083 10.5305 1.25764 10.5532C1.29002 10.5548 1.4217 10.5608 1.64308 10.5608C3.06287 10.5608 8.163 10.3158 14.2797 7.12456C15.727 6.36947 16.7302 5.71822 17.3159 5.30593C17.3988 5.24762 17.5431 5.1471 17.6763 5.2827L18.6425 6.24885C18.8815 6.48781 19.1408 6.41426 19.2189 6.08547L20.1581 1.8943C20.2361 1.56545 20.0312 1.36151 19.7027 1.44102Z" fill="black"/>
</g>
<defs>
<clipPath id="clip0_302_8677">
<rect width="20" height="20" fill="white" transform="translate(0.5 0.105469)"/>
</clipPath>
</defs>
</svg>
