<svg width="20" height="20" viewBox="0 0 20 20" fill="none" xmlns="http://www.w3.org/2000/svg">
<path d="M3.75002 10.5996C3.70042 10.5996 3.65132 10.6094 3.60555 10.6285C3.55978 10.6477 3.51825 10.6756 3.48337 10.7109C3.4485 10.7462 3.42096 10.788 3.40236 10.834C3.38376 10.88 3.37447 10.9292 3.37502 10.9788V17.7496C3.37502 17.8491 3.41453 17.9444 3.48486 18.0148C3.55518 18.0851 3.65057 18.1246 3.75002 18.1246H9.02086C9.07045 18.1252 9.11966 18.1159 9.16564 18.0973C9.21162 18.0787 9.25345 18.0511 9.28872 18.0163C9.32398 17.9814 9.35198 17.9399 9.37108 17.8941C9.39019 17.8483 9.40003 17.7992 9.40002 17.7496V10.9788C9.40002 10.8782 9.36007 10.7818 9.28897 10.7107C9.21786 10.6396 9.12142 10.5996 9.02086 10.5996H3.75002Z" stroke="black" stroke-width="0.416667" stroke-linecap="round" stroke-linejoin="round"/>
<path d="M3.75002 1.87502C3.70078 1.87502 3.65201 1.88472 3.60652 1.90357C3.56102 1.92241 3.51968 1.95004 3.48486 1.98486C3.45004 2.01968 3.42241 2.06102 3.40357 2.10652C3.38472 2.15201 3.37502 2.20078 3.37502 2.25002V9.02086C3.37447 9.07045 3.38376 9.11966 3.40236 9.16564C3.42096 9.21162 3.4485 9.25345 3.48337 9.28872C3.51825 9.32398 3.55978 9.35198 3.60555 9.37108C3.65132 9.39019 3.70042 9.40003 3.75002 9.40002H9.02086C9.12142 9.40002 9.21786 9.36008 9.28897 9.28897C9.36007 9.21786 9.40002 9.12142 9.40002 9.02086V2.25002C9.40003 2.20042 9.39019 2.15132 9.37108 2.10555C9.35198 2.05978 9.32398 2.01825 9.28872 1.98337C9.25345 1.9485 9.21162 1.92096 9.16564 1.90236C9.11966 1.88376 9.07045 1.87447 9.02086 1.87502H8.56669V4.37502L7.73336 3.54169L6.90002 4.37502V1.87502H3.75002Z" stroke="black" stroke-width="0.416667" stroke-linecap="round" stroke-linejoin="round"/>
<path d="M10.9788 10.5996C10.8782 10.5996 10.7818 10.6396 10.7107 10.7107C10.6396 10.7818 10.5996 10.8782 10.5996 10.9788V17.7496C10.5996 17.7992 10.6094 17.8483 10.6285 17.8941C10.6477 17.9399 10.6756 17.9814 10.7109 18.0163C10.7462 18.0511 10.788 18.0787 10.834 18.0973C10.88 18.1159 10.9292 18.1252 10.9788 18.1246H16.2496C16.3491 18.1246 16.4444 18.0851 16.5148 18.0148C16.5851 17.9444 16.6246 17.8491 16.6246 17.7496V10.9788C16.6252 10.9292 16.6159 10.88 16.5973 10.834C16.5787 10.788 16.5511 10.7462 16.5163 10.7109C16.4814 10.6756 16.4399 10.6477 16.3941 10.6285C16.3483 10.6094 16.2992 10.5996 16.2496 10.5996H15.7913V13.0996L14.9579 12.2663L14.1246 13.0996V10.5996H10.9788Z" stroke="black" stroke-width="0.416667" stroke-linecap="round" stroke-linejoin="round"/>
<path d="M10.9788 1.87502C10.9292 1.87447 10.88 1.88376 10.834 1.90236C10.788 1.92096 10.7462 1.9485 10.7109 1.98337C10.6756 2.01825 10.6477 2.05978 10.6285 2.10555C10.6094 2.15132 10.5996 2.20042 10.5996 2.25002V9.02086C10.5996 9.12142 10.6396 9.21786 10.7107 9.28897C10.7818 9.36008 10.8782 9.40002 10.9788 9.40002H16.2496C16.2992 9.40003 16.3483 9.39019 16.3941 9.37108C16.4399 9.35198 16.4814 9.32398 16.5163 9.28872C16.5511 9.25345 16.5787 9.21162 16.5973 9.16564C16.6159 9.11966 16.6252 9.07045 16.6246 9.02086V2.25002C16.6246 2.20078 16.6149 2.15201 16.5961 2.10652C16.5772 2.06102 16.5496 2.01968 16.5148 1.98486C16.48 1.95004 16.4386 1.92241 16.3931 1.90357C16.3476 1.88472 16.2989 1.87502 16.2496 1.87502H15.7913V4.09586H14.1246V1.87502H10.9788Z" stroke="black" stroke-width="0.416667" stroke-linecap="round" stroke-linejoin="round"/>
<path d="M4.72949 6.1084H8.05033" stroke="black" stroke-width="0.416667" stroke-linecap="round" stroke-linejoin="round"/>
<path d="M8.05033 7.5459H4.72949" stroke="black" stroke-width="0.416667" stroke-linecap="round" stroke-linejoin="round"/>
<path d="M11.9502 6.1084H15.271" stroke="black" stroke-width="0.416667" stroke-linecap="round" stroke-linejoin="round"/>
<path d="M15.271 7.5459H11.9502" stroke="black" stroke-width="0.416667" stroke-linecap="round" stroke-linejoin="round"/>
<path d="M15.271 14.3623H11.9502" stroke="black" stroke-width="0.416667" stroke-linecap="round" stroke-linejoin="round"/>
<path d="M8.05033 14.3623H4.72949" stroke="black" stroke-width="0.416667" stroke-linecap="round" stroke-linejoin="round"/>
<path d="M8.05033 12.9248H4.72949" stroke="black" stroke-width="0.416667" stroke-linecap="round" stroke-linejoin="round"/>
<path d="M8.05033 15.7998H4.72949" stroke="black" stroke-width="0.416667" stroke-linecap="round" stroke-linejoin="round"/>
</svg>
