<svg width="18" height="18" viewBox="0 0 18 18" fill="none" xmlns="http://www.w3.org/2000/svg">
<path d="M14.8133 14.0519C13.7348 15.2925 12.2879 16.1559 10.6839 16.5159C9.07994 16.8759 7.40289 16.7136 5.89764 16.0529C4.3924 15.3921 3.13786 14.2673 2.31723 12.8428C1.49659 11.4184 1.15284 9.76889 1.33618 8.13522C1.51938 6.5014 2.22015 4.96895 3.33614 3.76169C4.45214 2.55443 5.92489 1.7356 7.53931 1.4248M10.4591 1.43105C11.5432 1.63984 12.5699 2.07908 13.4695 2.71905C14.3692 3.35901 15.1208 4.18477 15.6737 5.14043C16.2266 6.09611 16.5677 7.15941 16.674 8.25836C16.7803 9.35732 16.6493 10.4663 16.2898 11.5102" stroke="black" stroke-width="1.25" stroke-linecap="round"/>
<path d="M7.33398 8.58301V7.09342C7.33398 6.1902 8.08013 5.45801 9.00065 5.45801C9.92117 5.45801 10.6673 6.1902 10.6673 7.09342V8.58301M6.91732 8.58301H11.084C11.5457 8.58301 11.9173 8.95467 11.9173 9.41634V11.708C11.9173 12.1697 11.5457 12.5413 11.084 12.5413H6.91732C6.45565 12.5413 6.08398 12.1697 6.08398 11.708V9.41634C6.08398 8.95467 6.45565 8.58301 6.91732 8.58301Z" stroke="black" stroke-width="1.25"/>
</svg>
