<svg width="21" height="21" viewBox="0 0 21 21" fill="none" xmlns="http://www.w3.org/2000/svg">
<path d="M10.5 12.6055C11.8807 12.6055 13 11.4862 13 10.1055C13 8.72476 11.8807 7.60547 10.5 7.60547C9.11929 7.60547 8 8.72476 8 10.1055C8 11.4862 9.11929 12.6055 10.5 12.6055Z" stroke="black" stroke-width="1.25"/>
<path d="M11.9716 1.89933C11.6652 1.77246 11.277 1.77246 10.5004 1.77246C9.72382 1.77246 9.33557 1.77246 9.02924 1.89933C8.62088 2.06849 8.29642 2.39294 8.12726 2.80132C8.05005 2.98774 8.01982 3.20454 8.008 3.52079C7.99062 3.98553 7.75229 4.4157 7.34952 4.64824C6.94677 4.88076 6.45506 4.87208 6.0439 4.65476C5.76411 4.50688 5.56125 4.42464 5.36119 4.39831C4.92294 4.34061 4.47972 4.45937 4.12904 4.72846C3.86602 4.93028 3.67188 5.26654 3.2836 5.93907C2.89531 6.6116 2.70117 6.94786 2.6579 7.27655C2.6002 7.71479 2.71896 8.15801 2.98805 8.50871C3.11087 8.66879 3.28349 8.80329 3.5514 8.97163C3.94524 9.21913 4.19865 9.64071 4.19862 10.1058C4.1986 10.5709 3.9452 10.9924 3.55139 11.2398C3.28345 11.4082 3.1108 11.5428 2.98797 11.7029C2.71888 12.0535 2.60012 12.4967 2.65782 12.935C2.70109 13.2636 2.89523 13.6 3.28351 14.2725C3.6718 14.945 3.86595 15.2813 4.12895 15.483C4.47964 15.7521 4.92285 15.8709 5.3611 15.8132C5.56115 15.7869 5.764 15.7046 6.04377 15.5568C6.45496 15.3395 6.9467 15.3308 7.34949 15.5633C7.75227 15.7959 7.99062 16.226 8.008 16.6909C8.01983 17.007 8.05005 17.2239 8.12726 17.4103C8.29642 17.8186 8.62088 18.1431 9.02924 18.3123C9.33557 18.4391 9.72382 18.4391 10.5004 18.4391C11.277 18.4391 11.6652 18.4391 11.9716 18.3123C12.3799 18.1431 12.7044 17.8186 12.8735 17.4103C12.9507 17.2239 12.981 17.007 12.9928 16.6908C13.0102 16.226 13.2485 15.7959 13.6512 15.5633C14.054 15.3307 14.5457 15.3395 14.957 15.5568C15.2367 15.7046 15.4396 15.7868 15.6396 15.8131C16.0778 15.8709 16.5211 15.7521 16.8717 15.483C17.1347 15.2812 17.3289 14.945 17.7172 14.2724C18.1055 13.5999 18.2997 13.2636 18.3429 12.935C18.4006 12.4967 18.2818 12.0535 18.0127 11.7028C17.8899 11.5427 17.7172 11.4081 17.4493 11.2398C17.0556 10.9924 16.8022 10.5708 16.8022 10.1057C16.8022 9.64063 17.0556 9.21921 17.4493 8.97179C17.7173 8.80338 17.89 8.66888 18.0128 8.50871C18.2819 8.15807 18.4007 7.71485 18.343 7.2766C18.2997 6.94792 18.1056 6.61165 17.7172 5.93913C17.329 5.2666 17.1348 4.93034 16.8718 4.72852C16.5212 4.45943 16.0779 4.34067 15.6397 4.39837C15.4397 4.4247 15.2368 4.50693 14.957 4.65479C14.5458 4.87212 14.0541 4.88081 13.6513 4.64826C13.2485 4.41572 13.0102 3.98551 12.9928 3.52074C12.981 3.20453 12.9507 2.98774 12.8735 2.80132C12.7044 2.39294 12.3799 2.06849 11.9716 1.89933Z" stroke="black" stroke-width="1.25"/>
</svg>
