<svg width="20" height="20" viewBox="0 0 20 20" fill="none" xmlns="http://www.w3.org/2000/svg">
<path fill-rule="evenodd" clip-rule="evenodd" d="M1.04102 6.66699C1.04102 3.56039 3.55942 1.04199 6.66602 1.04199H13.3327C16.4393 1.04199 18.9577 3.56039 18.9577 6.66699V13.3337C18.9577 16.4402 16.4393 18.9587 13.3327 18.9587H6.66602C3.55942 18.9587 1.04102 16.4402 1.04102 13.3337V6.66699Z" fill="#BFBFBF"/>
<path fill-rule="evenodd" clip-rule="evenodd" d="M9.99902 5.83984C10.3442 5.83984 10.624 6.11967 10.624 6.46484V13.5359C10.624 13.8811 10.3442 14.1609 9.99902 14.1609C9.65377 14.1609 9.37402 13.8811 9.37402 13.5359V6.46484C9.37402 6.11966 9.65386 5.83984 9.99902 5.83984Z" fill="black"/>
<path fill-rule="evenodd" clip-rule="evenodd" d="M14.1658 10C14.1658 10.3452 13.8859 10.625 13.5408 10.625H6.46973C6.12455 10.625 5.84473 10.3452 5.84473 10C5.84473 9.65475 6.12455 9.375 6.46973 9.375H13.5408C13.8859 9.375 14.1658 9.65483 14.1658 10Z" fill="black"/>
</svg>
